<?xml version="1.0" standalone="no"?>
<!DOCTYPE svg PUBLIC "-//W3C//DTD SVG 20010904//EN"
 "http://www.w3.org/TR/2001/REC-SVG-20010904/DTD/svg10.dtd">
<svg version="1.0" xmlns="http://www.w3.org/2000/svg"
 width="1024.000000pt" height="1024.000000pt" viewBox="0 0 1024.000000 1024.000000"
 preserveAspectRatio="xMidYMid meet">

<g transform="translate(0.000000,1024.000000) scale(0.100000,-0.100000)"
fill="#000000" stroke="none">
<path d="M4053 5512 c-157 -56 -243 -188 -243 -371 1 -126 54 -229 153 -294
68 -45 113 -59 195 -60 80 -1 129 14 198 60 195 128 205 459 19 606 -88 70
-223 94 -322 59z m197 -134 c116 -59 161 -230 95 -358 -37 -71 -128 -118 -208
-106 -112 17 -187 111 -187 235 0 86 12 127 52 175 61 74 163 96 248 54z"/>
<path d="M6599 5517 c-43 -33 -46 -80 -6 -117 44 -42 127 -5 127 55 0 55 -78
95 -121 62z"/>
<path d="M7838 5513 l-38 -4 0 -353 c0 -194 2 -355 4 -357 2 -2 80 -2 173 1
158 5 171 7 225 33 68 33 121 90 156 166 23 48 26 70 27 156 0 88 -3 107 -26
156 -35 73 -85 128 -150 164 -45 24 -68 29 -168 36 -121 8 -141 8 -203 2z
m297 -145 c41 -22 81 -66 99 -110 25 -58 21 -163 -8 -223 -39 -84 -88 -112
-217 -122 l-79 -6 0 240 c0 132 2 242 4 244 10 10 174 -9 201 -23z"/>
<path d="M4804 5319 c-18 -5 -46 -25 -62 -44 l-31 -34 -3 35 -3 36 -57 1 -58
2 0 -257 0 -258 60 0 60 0 0 145 c0 166 10 203 62 235 18 11 50 20 71 20 l38
0 -3 63 c-3 69 -11 75 -74 56z"/>
<path d="M5045 5311 c-87 -39 -136 -131 -136 -251 0 -120 40 -198 121 -240 78
-40 160 -34 220 16 l30 26 0 -41 c0 -83 -51 -141 -125 -141 -44 0 -73 13 -101
47 -19 22 -27 24 -60 19 -62 -11 -68 -17 -51 -58 32 -77 106 -118 212 -118 82
0 134 21 182 71 62 66 66 86 71 381 2 147 2 273 0 280 -4 9 -23 12 -67 10 -58
-4 -61 -5 -61 -30 l0 -25 -23 21 c-55 52 -142 65 -212 33z m184 -126 c38 -33
54 -83 49 -152 -6 -67 -32 -104 -85 -121 -87 -28 -153 39 -153 153 0 95 40
145 116 145 31 0 51 -7 73 -25z"/>
<path d="M5630 5315 c-25 -8 -59 -29 -76 -47 -31 -33 -58 -91 -47 -102 4 -3
29 -6 58 -6 45 0 54 3 73 30 20 26 29 30 70 30 50 -1 72 -12 90 -47 24 -44 16
-53 -43 -53 -183 0 -284 -72 -272 -193 8 -88 68 -139 165 -140 62 0 91 11 135
51 l27 26 0 -32 0 -32 60 0 60 0 0 178 c0 97 -5 194 -10 214 -13 45 -52 93
-91 114 -43 22 -145 27 -199 9z m180 -305 c0 -69 -53 -120 -125 -120 -43 0
-75 29 -75 68 0 52 52 79 153 81 46 1 47 0 47 -29z"/>
<path d="M6230 5314 c-19 -8 -47 -27 -62 -41 l-26 -25 1 34 2 33 -57 0 -58 0
0 -257 0 -258 60 0 60 0 0 163 c0 144 2 166 20 195 11 18 32 37 48 43 36 14
91 4 116 -21 19 -19 21 -34 24 -199 l3 -179 60 -4 59 -3 0 191 c0 116 -4 204
-11 225 -33 97 -143 145 -239 103z"/>
<path d="M7420 5321 c-78 -25 -126 -71 -132 -127 -3 -28 -2 -29 49 -32 44 -3
53 0 63 18 15 29 67 49 108 43 37 -6 72 -44 72 -78 0 -21 -6 -22 -87 -29 -124
-9 -187 -39 -215 -102 -35 -81 -8 -173 64 -210 38 -20 134 -22 168 -4 14 7 37
24 53 38 l27 26 0 -32 c0 -30 2 -32 38 -32 20 0 47 -3 60 -6 l22 -6 0 170 c0
248 -15 299 -103 344 -45 22 -145 33 -187 19z m160 -320 c0 -97 -136 -152
-186 -76 -14 21 -14 30 -4 54 16 39 61 56 153 60 37 1 37 1 37 -38z"/>
<path d="M8630 5321 c-82 -25 -151 -94 -175 -175 -56 -189 61 -358 250 -359
148 -1 255 109 255 264 0 88 -24 153 -75 204 -63 63 -171 91 -255 66z m137
-121 c83 -50 93 -203 17 -270 -28 -24 -44 -30 -80 -30 -25 0 -56 7 -70 17 -61
39 -85 164 -44 231 41 67 116 89 177 52z"/>
<path d="M9188 5316 c-56 -20 -85 -42 -117 -86 -62 -86 -68 -225 -14 -322 75
-133 263 -166 370 -64 40 38 78 110 66 128 -2 5 -29 8 -59 8 -49 0 -56 -3 -66
-26 -15 -32 -56 -54 -104 -54 -54 0 -108 57 -117 124 -12 85 16 151 75 182 47
24 78 18 119 -26 36 -37 42 -40 94 -40 l57 0 -7 33 c-10 48 -50 101 -96 126
-51 29 -148 37 -201 17z"/>
<path d="M6584 5311 c-2 -2 -4 -118 -4 -258 l0 -253 60 0 60 0 0 254 0 254
-56 4 c-31 1 -58 1 -60 -1z"/>
<path d="M6800 5260 l0 -50 116 0 115 0 -47 -62 c-46 -60 -69 -88 -166 -205
-39 -47 -43 -55 -40 -97 l4 -46 209 0 209 0 0 50 0 49 -129 3 -129 3 134 163
c122 148 134 167 134 203 l0 39 -205 0 -205 0 0 -50z"/>
<path d="M2543 4918 l-203 -203 -108 108 c-81 81 -114 107 -133 107 -33 0 -59
-29 -59 -65 0 -24 25 -54 138 -167 102 -102 144 -138 162 -138 19 0 80 55 257
233 248 249 258 262 213 307 -40 40 -55 29 -267 -182z"/>
</g>
</svg>
